<svg width="23" height="23" viewBox="0 0 23 23" fill="none" xmlns="http://www.w3.org/2000/svg">
<g clip-path="url(#clip0_14_547)">
<path d="M17.7292 23H5.27082C2.36114 22.9968 0.00318945 20.6389 0 17.7292V5.27082C0.00318945 2.36114 2.36114 0.00318945 5.27082 0H17.7291C20.6389 0.00318945 22.9968 2.36114 23 5.27082V17.7291C22.9968 20.6389 20.6389 22.9968 17.7292 23ZM5.27082 2.875C3.94764 2.875 2.875 3.94764 2.875 5.27082V17.7291C2.875 19.0524 3.94764 20.125 5.27082 20.125H17.7291C19.0524 20.125 20.125 19.0524 20.125 17.7292V5.27082C20.125 3.94764 19.0524 2.875 17.7292 2.875H5.27082Z" fill="#05A11D"/>
<path d="M9.26418 17.0458C8.65944 17.0462 8.07968 16.8047 7.65418 16.375L4.79163 13.5173C4.23006 12.956 4.22979 12.0459 4.791 11.4843C4.79122 11.4841 4.79145 11.4839 4.79163 11.4836C5.35297 10.9225 6.26291 10.9225 6.82425 11.4836L9.26418 13.9226L16.1757 7.01108C16.737 6.44992 17.647 6.44992 18.2083 7.01108C18.7699 7.57229 18.7701 8.48245 18.2089 9.04402C18.2087 9.04425 18.2085 9.04447 18.2083 9.04465L10.8732 16.3798C10.4473 16.8076 9.86793 17.0475 9.26418 17.0458Z" fill="#05A11D"/>
</g>
<defs>
<clipPath id="clip0_14_547">
<rect width="23" height="23" fill="white"/>
</clipPath>
</defs>
</svg>
