<svg width="23" height="23" viewBox="0 0 23 23" fill="none" xmlns="http://www.w3.org/2000/svg">
<path d="M18.2083 0H4.79167C2.14954 0 0 2.14954 0 4.79167V18.2083C0 20.8505 2.14954 23 4.79167 23H18.2083C20.8505 23 23 20.8505 23 18.2083V4.79167C23 2.14954 20.8505 0 18.2083 0ZM21.0833 18.2083C21.0833 19.7934 19.7934 21.0833 18.2083 21.0833H4.79167C3.20658 21.0833 1.91667 19.7934 1.91667 18.2083V4.79167C1.91667 3.20658 3.20658 1.91667 4.79167 1.91667H18.2083C19.7934 1.91667 21.0833 3.20658 21.0833 4.79167V18.2083ZM13.3026 5.63212L6.19562 12.7391C5.29096 13.6438 4.79167 14.8475 4.79167 16.1278V16.7708C4.79167 17.5634 5.43663 18.2083 6.22917 18.2083H6.87221C8.15254 18.2083 9.35525 17.709 10.2599 16.8044L17.3525 9.71271C18.4738 8.69496 18.4747 6.64796 17.3679 5.63404C16.2821 4.54729 14.3865 4.54825 13.3026 5.63404V5.63212ZM8.90483 15.4493C8.32504 16.0358 7.52962 16.3262 6.70833 16.2917C6.67383 15.4704 6.96421 14.675 7.55071 14.0952L12.3012 9.34471L13.6553 10.6988L8.90483 15.4493ZM16.0118 8.34229L15.0113 9.34279L13.6572 7.98867L14.6587 6.98721C15.018 6.62687 15.6362 6.61154 16.0272 7.00254C16.377 7.32742 16.376 8.01454 16.0118 8.34229Z" fill="#6B05B4"/>
</svg>
